# xmcd CD database file
#
# Track frame offsets:
#	150
#	19928
#	26905
#	39684
#	51562
#	66829
#	83304
#	105470
#	126850
#	141170
#	151549
#	164728
#	184087
#	196145
#	216272
#	230785
#	262582
#
# Disc length: 3951 seconds
#
# Revision: 1
# Processed by: cddbd v1.5.2PL0 Copyright (c) Steve Scherf et al.
# Submitted via: CDex 1.70beta2
#
DISCID=ea0f6d11
DTITLE=Various Artist - The Very Best of Latin Jazz [CD1]
DYEAR=2007
DGENRE=Jazz
TTITLE0=Sergio Mendes - Mas Que Nada
TTITLE1=Astrud Gilberto - Crickets Sing For Anamaria
TTITLE2=Los Lobos - La Bamba
TTITLE3=Anita O'Day - Peanut Vendor
TTITLE4=Gipsy Kings - Bamboleo
TTITLE5=Lou Bega - Mamba No. 5
TTITLE6=Mongo Santamaria - Smooth Operator
TTITLE7=Sivuca - Ain't No Sunshine
TTITLE8=The Sandpipers - Guantanamera
TTITLE9=Astrud Gilberto - Agua De Beber
TTITLE10=Quartette Tres Vien - Boss Trés Bien
TTITLE11=Airto - Celebration Suite
TTITLE12=Dave Pike - Sandunga
TTITLE13=Yuri Buenaventura - Salsa
TTITLE14=Willie Bobo - Roots
TTITLE15=Caj Tjader and Eddie Palmieri - Picadillo
TTITLE16=Cal Tjader - Shoshana
EXTD=YEAR: 2007
EXTT0=
EXTT1=
EXTT2=
EXTT3=
EXTT4=
EXTT5=
EXTT6=
EXTT7=
EXTT8=
EXTT9=
EXTT10=
EXTT11=
EXTT12=
EXTT13=
EXTT14=
EXTT15=
EXTT16=
PLAYORDER=
